<svg width="1600" height="900" viewBox="0 0 1600 900" xmlns="http://www.w3.org/2000/svg" role="img" aria-labelledby="title desc">
  <title id="title">Eyeglasses Buying Guide Banner</title>
  <desc id="desc">Modern abstract banner for eyeglasses guide articles</desc>
  <defs>
    <linearGradient id="bg" x1="0" y1="0" x2="1" y2="1">
      <stop offset="0%" stop-color="#e8fff7" />
      <stop offset="55%" stop-color="#d9f4ff" />
      <stop offset="100%" stop-color="#f3f4ff" />
    </linearGradient>
    <linearGradient id="accent" x1="0" y1="0" x2="1" y2="0">
      <stop offset="0%" stop-color="#0f766e" />
      <stop offset="100%" stop-color="#2563eb" />
    </linearGradient>
    <filter id="soft" x="-20%" y="-20%" width="140%" height="140%">
      <feGaussianBlur stdDeviation="24" />
    </filter>
  </defs>

  <rect width="1600" height="900" fill="url(#bg)" />
  <circle cx="1300" cy="220" r="180" fill="#34d399" opacity="0.22" filter="url(#soft)" />
  <circle cx="260" cy="760" r="220" fill="#3b82f6" opacity="0.16" filter="url(#soft)" />

  <g opacity="0.8">
    <path d="M0 620 C 220 560, 360 700, 560 650 C 760 600, 880 470, 1120 540 C 1320 600, 1440 520, 1600 560 L 1600 900 L 0 900 Z" fill="#ffffff"/>
  </g>

  <g transform="translate(860 360)" fill="none" stroke="url(#accent)" stroke-width="16" stroke-linecap="round">
    <rect x="-310" y="-95" width="250" height="180" rx="84" />
    <rect x="70" y="-95" width="250" height="180" rx="84" />
    <path d="M-60 -5 H70" />
    <path d="M-310 -5 C-380 0 -430 30 -465 90" opacity="0.45" />
    <path d="M320 -5 C390 0 440 30 475 90" opacity="0.45" />
  </g>

  <g transform="translate(130 170)">
    <text x="0" y="0" font-family="Georgia, 'Times New Roman', serif" font-size="56" fill="#0f172a" font-weight="700">Eyeglasses Buying Guide</text>
    <text x="0" y="62" font-family="Verdana, Arial, sans-serif" font-size="30" fill="#334155">Fit, Lens Type, Comfort, and Smart Online Selection</text>
    <rect x="0" y="98" width="470" height="10" rx="5" fill="url(#accent)" opacity="0.88" />
  </g>
</svg>
